# Blender v2.83.0 OBJ File: 'Large knob.blend'
# www.blender.org
mtllib Large knob.mtl
o Cylinder
v 0.000000 0.000142 -2.931561
v -0.029707 0.035732 -2.928861
v 0.029707 0.035732 -2.928861
v -0.000000 2.052520 -1.207175
v 0.039486 2.021174 -1.264415
v -0.039486 2.021174 -1.264415
v 1.050306 0.000142 -1.656471
v 1.047858 0.038353 -1.702154
v 1.100354 0.038321 -1.640037
v 0.652648 2.052520 -1.015540
v 0.709617 2.014341 -1.032040
v 0.643991 2.014341 -1.074216
v 1.780905 0.000142 -0.813312
v 1.779941 0.038321 -0.855752
v 1.812348 0.038321 -0.784791
v 1.098085 2.052520 -0.501479
v 1.154931 2.014341 -0.484559
v 1.122524 2.014341 -0.555520
v 1.937903 0.000142 0.278628
v 1.960036 0.038321 0.242404
v 1.948934 0.038321 0.319621
v 1.194888 2.052520 0.171799
v 1.233562 2.014341 0.216766
v 1.244664 2.014341 0.139549
v 1.479629 0.000142 1.282107
v 1.517833 0.038321 1.263599
v 1.466747 0.038321 1.322556
v 0.912322 2.052520 0.790532
v 0.920546 2.014341 0.849269
v 0.971632 2.014341 0.790313
v 0.551584 0.000142 1.878525
v 0.593729 0.038321 1.883610
v 0.518879 0.038321 1.905588
v 0.340100 2.052520 1.158276
v 0.315263 2.014341 1.212135
v 0.390114 2.014341 1.190157
v -0.551585 0.000142 1.878525
v -0.518879 0.038321 1.905588
v -0.593730 0.038321 1.883609
v -0.340101 2.052520 1.158276
v -0.390114 2.014341 1.190157
v -0.315263 2.014341 1.212135
v -1.479630 0.000142 1.282106
v -1.466748 0.038321 1.322555
v -1.517834 0.038321 1.263598
v -0.912322 2.052520 0.790531
v -0.971632 2.014341 0.790312
v -0.920546 2.014341 0.849269
v -1.937903 0.000142 0.278628
v -1.948934 0.038321 0.319620
v -1.960036 0.038321 0.242403
v -1.194888 2.052520 0.171798
v -1.244664 2.014341 0.139549
v -1.233562 2.014341 0.216766
v -1.780905 0.000142 -0.813312
v -1.812347 0.038321 -0.784791
v -1.779940 0.038321 -0.855752
v -1.098085 2.052520 -0.501479
v -1.122524 2.014341 -0.555520
v -1.154931 2.014341 -0.484559
v -1.050306 0.000142 -1.656471
v -1.100354 0.038321 -1.640037
v -1.047858 0.038353 -1.702154
v -0.652648 2.052520 -1.015540
v -0.643991 2.014341 -1.074215
v -0.709618 2.014341 -1.032040
vt 0.088439 0.509087
vt 0.086231 0.991128
vt 0.004694 0.991898
vt 0.002610 0.508755
vt 0.814757 0.509301
vt 0.813205 0.990699
vt 0.732249 0.990699
vt 0.730697 0.509301
vt 0.723848 0.509301
vt 0.722296 0.990699
vt 0.641340 0.990699
vt 0.639788 0.509301
vt 0.632939 0.509301
vt 0.631387 0.990699
vt 0.550431 0.990699
vt 0.548879 0.509301
vt 0.542030 0.509301
vt 0.540478 0.990699
vt 0.459522 0.990699
vt 0.457970 0.509301
vt 0.451121 0.509301
vt 0.449569 0.990699
vt 0.368612 0.990699
vt 0.367061 0.509301
vt 0.360211 0.509301
vt 0.358660 0.990699
vt 0.277703 0.990699
vt 0.276152 0.509301
vt 0.269302 0.509301
vt 0.267751 0.990699
vt 0.186794 0.990699
vt 0.185243 0.509301
vt 0.178393 0.509301
vt 0.176842 0.990699
vt 0.095885 0.990699
vt 0.094334 0.509301
vt 0.905666 0.509301
vt 0.904115 0.990699
vt 0.823158 0.990699
vt 0.821607 0.509301
vt 0.375374 0.445086
vt 0.250000 0.481899
vt 0.124626 0.445086
vt 0.039057 0.346334
vt 0.020461 0.216997
vt 0.074742 0.098138
vt 0.184666 0.027494
vt 0.315334 0.027494
vt 0.425258 0.098138
vt 0.479539 0.216997
vt 0.460943 0.346334
vt 0.997390 0.508755
vt 0.995306 0.991898
vt 0.913769 0.991128
vt 0.911561 0.509087
vt 0.750000 0.487248
vt 0.744652 0.488430
vt 0.755348 0.488430
vt 0.256201 0.488179
vt 0.243799 0.488179
vt 0.876037 0.446753
vt 0.876976 0.452717
vt 0.883258 0.447857
vt 0.384373 0.446570
vt 0.372986 0.453888
vt 0.963709 0.347394
vt 0.964808 0.353743
vt 0.969073 0.344404
vt 0.469315 0.342718
vt 0.463693 0.355030
vt 0.982548 0.216420
vt 0.986796 0.221140
vt 0.985335 0.210978
vt 0.484627 0.209428
vt 0.486553 0.222826
vt 0.927556 0.096027
vt 0.933603 0.097700
vt 0.926879 0.089941
vt 0.425446 0.089020
vt 0.434310 0.099250
vt 0.816190 0.024467
vt 0.822117 0.022614
vt 0.812265 0.019722
vt 0.310562 0.019722
vt 0.323550 0.023535
vt 0.683810 0.024467
vt 0.687734 0.019722
vt 0.677883 0.022614
vt 0.176450 0.023535
vt 0.189438 0.019722
vt 0.572444 0.096028
vt 0.573121 0.089941
vt 0.566397 0.097700
vt 0.065690 0.099250
vt 0.074554 0.089020
vt 0.517452 0.216420
vt 0.514665 0.210978
vt 0.513204 0.221140
vt 0.013447 0.222826
vt 0.015373 0.209428
vt 0.536291 0.347394
vt 0.530927 0.344404
vt 0.535192 0.353743
vt 0.036307 0.355030
vt 0.030685 0.342718
vt 0.623963 0.446753
vt 0.616742 0.447857
vt 0.623024 0.452717
vt 0.127014 0.453888
vt 0.115627 0.446570
vt 0.909091 0.500000
vt 0.997374 0.500000
vt 0.998466 1.000000
vt 0.910625 1.000000
vt -0.000000 0.993758
vt -0.000000 0.513007
vt 0.819140 0.500000
vt 0.907557 1.000000
vt 0.819716 1.000000
vt 0.728231 0.500000
vt 0.817223 0.500000
vt 0.816647 1.000000
vt 0.728807 1.000000
vt 0.637322 0.500000
vt 0.726314 0.500000
vt 0.725738 1.000000
vt 0.637898 1.000000
vt 0.546413 0.500000
vt 0.635405 0.500000
vt 0.634829 1.000000
vt 0.546989 1.000000
vt 0.455504 0.500000
vt 0.544496 0.500000
vt 0.543920 1.000000
vt 0.456080 1.000000
vt 0.364595 0.500000
vt 0.453587 0.500000
vt 0.453011 1.000000
vt 0.365170 1.000000
vt 0.273686 0.500000
vt 0.362678 0.500000
vt 0.362102 1.000000
vt 0.274261 1.000000
vt 0.182776 0.500000
vt 0.271769 0.500000
vt 0.271193 1.000000
vt 0.183352 1.000000
vt 0.090909 0.500000
vt 0.180860 0.500000
vt 0.180284 1.000000
vt 0.092443 1.000000
vt 0.002626 0.500000
vt 0.089375 1.000000
vt 0.001534 1.000000
vn -0.5887 0.4479 -0.6729
vn 0.9340 0.3311 -0.1343
vn 0.8583 0.3311 0.3920
vn 0.5101 0.3311 0.7938
vn -0.0000 0.3311 0.9436
vn -0.5101 0.3311 0.7938
vn -0.8583 0.3311 0.3920
vn -0.9340 0.3311 -0.1343
vn -0.7131 0.3311 -0.6179
vn 0.7131 0.3311 -0.6179
vn 0.0000 1.0000 -0.0000
vn 0.5887 0.4479 -0.6729
vn 0.0000 0.0756 -0.9971
vn 0.0000 0.8771 -0.4803
vn 0.6188 -0.5859 -0.5232
vn 0.3512 0.7603 -0.5465
vn 0.8330 -0.4018 -0.3804
vn 0.5909 0.7603 -0.2699
vn 0.9064 -0.4018 0.1303
vn 0.6430 0.7603 0.0925
vn 0.6921 -0.4018 0.5997
vn 0.4910 0.7603 0.4254
vn 0.2580 -0.4018 0.8786
vn 0.1830 0.7603 0.6233
vn -0.2580 -0.4018 0.8786
vn -0.1830 0.7603 0.6233
vn -0.6921 -0.4018 0.5997
vn -0.4910 0.7603 0.4254
vn -0.9064 -0.4018 0.1303
vn -0.6430 0.7603 0.0925
vn -0.8330 -0.4018 -0.3804
vn -0.5909 0.7603 -0.2699
vn -0.6188 -0.5859 -0.5232
vn -0.3512 0.7603 -0.5465
vn 0.6448 -0.5483 -0.5325
vn 0.1501 0.8650 -0.4789
vn 0.0000 0.6424 -0.7663
vn 0.6213 0.3449 -0.7036
vn 0.6166 -0.5783 -0.5343
vn 0.4371 0.8158 -0.3787
vn 0.8543 0.3435 -0.3901
vn 0.8075 -0.5783 -0.1161
vn 0.5724 0.8158 -0.0823
vn 0.9296 0.3435 0.1337
vn 0.7421 -0.5783 0.3389
vn 0.5260 0.8158 0.2402
vn 0.7098 0.3435 0.6150
vn 0.4411 -0.5783 0.6863
vn 0.3127 0.8158 0.4865
vn 0.2646 0.3435 0.9011
vn -0.0000 -0.5783 0.8158
vn -0.0000 0.8158 0.5783
vn -0.2646 0.3435 0.9011
vn -0.4411 -0.5783 0.6863
vn -0.3127 0.8158 0.4865
vn -0.7098 0.3435 0.6150
vn -0.7421 -0.5783 0.3389
vn -0.5260 0.8158 0.2402
vn -0.9296 0.3435 0.1337
vn -0.8075 -0.5783 -0.1161
vn -0.5724 0.8158 -0.0823
vn -0.8543 0.3435 -0.3901
vn -0.6166 -0.5783 -0.5343
vn -0.4371 0.8158 -0.3787
vn -0.6213 0.3450 -0.7036
vn -0.6448 -0.5483 -0.5325
vn -0.1501 0.8650 -0.4789
vn 0.0000 -1.0000 0.0000
usemtl None
s off
f 63/1/1 65/2/1 6/3/1 2/4/1
f 15/5/2 17/6/2 24/7/2 20/8/2
f 21/9/3 23/10/3 30/11/3 26/12/3
f 27/13/4 29/14/4 36/15/4 32/16/4
f 33/17/5 35/18/5 42/19/5 38/20/5
f 39/21/6 41/22/6 48/23/6 44/24/6
f 45/25/7 47/26/7 54/27/7 50/28/7
f 51/29/8 53/30/8 60/31/8 56/32/8
f 57/33/9 59/34/9 66/35/9 62/36/9
f 9/37/10 11/38/10 18/39/10 14/40/10
f 10/41/11 4/42/11 64/43/11 58/44/11 52/45/11 46/46/11 40/47/11 34/48/11 28/49/11 22/50/11 16/51/11
f 3/52/12 5/53/12 12/54/12 8/55/12
f 1/56/13 2/57/13 3/58/13
f 4/42/14 5/59/14 6/60/14
f 7/61/15 8/62/15 9/63/15
f 10/41/16 11/64/16 12/65/16
f 13/66/17 14/67/17 15/68/17
f 16/51/18 17/69/18 18/70/18
f 19/71/19 20/72/19 21/73/19
f 22/50/20 23/74/20 24/75/20
f 25/76/21 26/77/21 27/78/21
f 28/49/22 29/79/22 30/80/22
f 31/81/23 32/82/23 33/83/23
f 34/48/24 35/84/24 36/85/24
f 37/86/25 38/87/25 39/88/25
f 40/47/26 41/89/26 42/90/26
f 43/91/27 44/92/27 45/93/27
f 46/46/28 47/94/28 48/95/28
f 49/96/29 50/97/29 51/98/29
f 52/45/30 53/99/30 54/100/30
f 55/101/31 56/102/31 57/103/31
f 58/44/32 59/104/32 60/105/32
f 61/106/33 62/107/33 63/108/33
f 64/43/34 65/109/34 66/110/34
f 3/52/35 8/55/35 7/111/35 1/112/35
f 12/54/36 5/53/36 4/113/36 10/114/36
f 2/4/37 6/3/37 5/115/37 3/116/37
f 11/38/38 9/37/38 8/55/38 12/54/38
f 9/37/39 14/40/39 13/117/39 7/111/39
f 18/39/40 11/38/40 10/118/40 16/119/40
f 17/6/41 15/5/41 14/40/41 18/39/41
f 15/5/42 20/8/42 19/120/42 13/121/42
f 24/7/43 17/6/43 16/122/43 22/123/43
f 23/10/44 21/9/44 20/8/44 24/7/44
f 21/9/45 26/12/45 25/124/45 19/125/45
f 30/11/46 23/10/46 22/126/46 28/127/46
f 29/14/47 27/13/47 26/12/47 30/11/47
f 27/13/48 32/16/48 31/128/48 25/129/48
f 36/15/49 29/14/49 28/130/49 34/131/49
f 35/18/50 33/17/50 32/16/50 36/15/50
f 33/17/51 38/20/51 37/132/51 31/133/51
f 42/19/52 35/18/52 34/134/52 40/135/52
f 41/22/53 39/21/53 38/20/53 42/19/53
f 39/21/54 44/24/54 43/136/54 37/137/54
f 48/23/55 41/22/55 40/138/55 46/139/55
f 47/26/56 45/25/56 44/24/56 48/23/56
f 45/25/57 50/28/57 49/140/57 43/141/57
f 54/27/58 47/26/58 46/142/58 52/143/58
f 53/30/59 51/29/59 50/28/59 54/27/59
f 51/29/60 56/32/60 55/144/60 49/145/60
f 60/31/61 53/30/61 52/146/61 58/147/61
f 59/34/62 57/33/62 56/32/62 60/31/62
f 57/33/63 62/36/63 61/148/63 55/149/63
f 66/35/64 59/34/64 58/150/64 64/151/64
f 65/2/65 63/1/65 62/36/65 66/35/65
f 63/1/66 2/4/66 1/152/66 61/148/66
f 6/3/67 65/2/67 64/153/67 4/154/67
f 1/56/68 7/61/68 13/66/68 19/71/68 25/76/68 31/81/68 37/86/68 43/91/68 49/96/68 55/101/68 61/106/68
