<svg xmlns="http://www.w3.org/2000/svg" viewBox="0 0 348 348" fill="none"><path d="M5.079 5.776h336.913v337.67H5.08z" stroke-width="2" stroke="#000"/><path d="M282.734 40.554c0-8.376 6.966-15.165 15.56-15.165 4.126 0 8.084 1.597 11.001 4.441 2.918 2.844 4.558 6.702 4.558 10.724 0 8.376-6.966 15.165-15.56 15.165-8.593 0-15.559-6.79-15.559-15.165z" stroke-width="2" stroke="#000"/><path d="M43.892 24.297h210.054V55.65H43.892zM283.73 83.081h32.919v237.487h-32.92z" stroke="#000" stroke-width="1.916" stroke-linecap="square" stroke-linejoin="round" paint-order="stroke fill markers"/><path d="M41.077 81.418h37.76v40.737h-37.76zM86.395 81.418h37.76v40.737h-37.76zM130.326 81.418h37.76v40.737h-37.76zM174.72 81.418h37.76v40.737h-37.76zM220.038 80.92h37.76v40.736h-37.76z" stroke="#000" stroke-width="2.349" stroke-linecap="square" stroke-linejoin="round" paint-order="stroke fill markers"/><path d="M41.077 81.418h37.76v40.737h-37.76z" stroke="#000" stroke-width="2.349" stroke-linecap="square" stroke-linejoin="round" paint-order="stroke fill markers"/><path d="M41.077 81.418h37.76v40.737h-37.76zM86.395 81.418h37.76v40.737h-37.76zM130.326 81.418h37.76v40.737h-37.76zM174.72 81.418h37.76v40.737h-37.76zM220.038 80.92h37.76v40.736h-37.76z" stroke="#000" stroke-width="2.349" stroke-linecap="square" stroke-linejoin="round" paint-order="stroke fill markers"/><path d="M41.077 81.418h37.76v40.737h-37.76zM40.614 130.31h37.76v40.737h-37.76zM85.933 130.31h37.76v40.737h-37.76zM129.864 130.31h37.76v40.737h-37.76zM174.257 130.31h37.76v40.737h-37.76zM219.575 129.81h37.76v40.738h-37.76z" stroke="#000" stroke-width="2.349" stroke-linecap="square" stroke-linejoin="round" paint-order="stroke fill markers"/><path d="M40.614 130.31h37.76v40.737h-37.76z" stroke="#000" stroke-width="2.349" stroke-linecap="square" stroke-linejoin="round" paint-order="stroke fill markers"/><path d="M40.614 130.31h37.76v40.737h-37.76zM85.933 130.31h37.76v40.737h-37.76zM129.864 130.31h37.76v40.737h-37.76zM174.257 130.31h37.76v40.737h-37.76zM219.575 129.81h37.76v40.738h-37.76z" stroke="#000" stroke-width="2.349" stroke-linecap="square" stroke-linejoin="round" paint-order="stroke fill markers"/><path d="M40.614 130.31h37.76v40.737h-37.76zM40.614 179.201h37.76v40.738h-37.76zM85.933 179.201h37.76v40.738h-37.76zM129.864 179.201h37.76v40.738h-37.76zM174.257 179.201h37.76v40.738h-37.76zM219.575 178.702h37.76v40.738h-37.76z" stroke="#000" stroke-width="2.349" stroke-linecap="square" stroke-linejoin="round" paint-order="stroke fill markers"/><path d="M40.614 179.201h37.76v40.738h-37.76z" stroke="#000" stroke-width="2.349" stroke-linecap="square" stroke-linejoin="round" paint-order="stroke fill markers"/><path d="M40.614 179.201h37.76v40.738h-37.76zM85.933 179.201h37.76v40.738h-37.76zM129.864 179.201h37.76v40.738h-37.76zM174.257 179.201h37.76v40.738h-37.76zM219.575 178.702h37.76v40.738h-37.76z" stroke="#000" stroke-width="2.349" stroke-linecap="square" stroke-linejoin="round" paint-order="stroke fill markers"/><path d="M40.614 179.201h37.76v40.738h-37.76zM40.152 229.59h37.76v40.737h-37.76zM85.47 229.59h37.76v40.737H85.47zM129.401 229.59h37.76v40.737h-37.76zM173.795 229.59h37.76v40.737h-37.76zM219.113 229.09h37.76v40.738h-37.76z" stroke="#000" stroke-width="2.349" stroke-linecap="square" stroke-linejoin="round" paint-order="stroke fill markers"/><path d="M40.152 229.59h37.76v40.737h-37.76z" stroke="#000" stroke-width="2.349" stroke-linecap="square" stroke-linejoin="round" paint-order="stroke fill markers"/><path d="M40.152 229.59h37.76v40.737h-37.76zM85.47 229.59h37.76v40.737H85.47zM129.401 229.59h37.76v40.737h-37.76zM173.795 229.59h37.76v40.737h-37.76zM219.113 229.09h37.76v40.738h-37.76z" stroke="#000" stroke-width="2.349" stroke-linecap="square" stroke-linejoin="round" paint-order="stroke fill markers"/><path d="M40.152 229.59h37.76v40.737h-37.76zM39.69 279.479h37.76v40.737H39.69zM85.008 279.479h37.76v40.737h-37.76zM128.939 279.479h37.76v40.737h-37.76zM173.332 279.479h37.76v40.737h-37.76zM218.65 278.98h37.76v40.737h-37.76z" stroke="#000" stroke-width="2.349" stroke-linecap="square" stroke-linejoin="round" paint-order="stroke fill markers"/><path d="M39.69 279.479h37.76v40.737H39.69z" stroke="#000" stroke-width="2.349" stroke-linecap="square" stroke-linejoin="round" paint-order="stroke fill markers"/><path d="M39.69 279.479h37.76v40.737H39.69zM85.008 279.479h37.76v40.737h-37.76zM128.939 279.479h37.76v40.737h-37.76zM173.332 279.479h37.76v40.737h-37.76zM218.65 278.98h37.76v40.737h-37.76z" stroke="#000" stroke-width="2.349" stroke-linecap="square" stroke-linejoin="round" paint-order="stroke fill markers"/><path d="M39.69 279.479h37.76v40.737H39.69z" stroke="#000" stroke-width="2.349" stroke-linecap="square" stroke-linejoin="round" paint-order="stroke fill markers"/></svg>