# Blender v2.83.0 OBJ File: 'Med-Knob.blend'
# www.blender.org
mtllib Med-Knob.mtl
o Cylinder
v -0.036811 -0.969765 -1.242497
v 0.036811 -0.969765 -1.242497
v 0.000000 -1.000000 -1.189370
v -0.036811 -0.938168 -1.271215
v 0.036811 -0.938168 -1.271215
v 0.730915 -0.969765 -0.535802
v 0.666427 -1.000000 -0.531458
v 0.685012 -0.969765 -0.593362
v 0.753368 -0.938168 -0.553707
v 0.707465 -0.938168 -0.611268
v 0.874625 -0.969765 0.237385
v 0.831021 -1.000000 0.189675
v 0.891008 -0.969765 0.165609
v 0.902623 -0.938168 0.243776
v 0.919006 -0.938168 0.171999
v 0.359724 -0.969765 0.831817
v 0.369839 -1.000000 0.767979
v 0.426056 -0.969765 0.799873
v 0.372185 -0.938168 0.857691
v 0.438516 -0.938168 0.825747
v -0.426056 -0.969765 0.799873
v -0.369839 -1.000000 0.767979
v -0.359724 -0.969765 0.831817
v -0.438516 -0.938168 0.825747
v -0.372185 -0.938168 0.857691
v -0.891008 -0.969765 0.165609
v -0.831021 -1.000000 0.189675
v -0.874625 -0.969765 0.237385
v -0.919006 -0.938168 0.171999
v -0.902623 -0.938168 0.243776
v -0.685012 -0.969765 -0.593362
v -0.666427 -1.000000 -0.531458
v -0.730915 -0.969765 -0.535802
v -0.707465 -0.938168 -0.611268
v -0.753368 -0.938168 -0.553707
v 0.042019 0.384443 -0.525478
v 0.052571 0.353764 -0.540880
v 0.016358 0.353848 -0.549146
v -0.000620 0.386453 -0.532204
v -0.016358 0.353848 -0.549146
v -0.052571 0.353764 -0.540880
v -0.042019 0.384443 -0.525478
v 0.000620 0.386453 -0.532204
v 0.028887 0.398668 -0.512521
v -0.000000 0.385782 -0.532816
v -0.028887 0.398668 -0.512521
v -0.000000 0.410711 -0.489010
v 0.419141 0.353848 -0.355177
v 0.390100 0.353764 -0.378335
v 0.384637 0.384443 -0.360482
v 0.416480 0.386453 -0.331339
v 0.382694 0.398668 -0.342136
v 0.382324 0.410711 -0.304893
v 0.418716 0.398668 -0.296967
v 0.416572 0.385782 -0.332205
v 0.439539 0.353848 -0.329598
v 0.415708 0.386453 -0.332308
v 0.437033 0.384443 -0.294778
v 0.455655 0.353764 -0.296132
v 0.539018 0.353848 0.106248
v 0.539017 0.353764 0.069104
v 0.521653 0.384443 0.075964
v 0.518723 0.386453 0.119031
v 0.506099 0.398668 0.085884
v 0.476750 0.410711 0.108815
v 0.493243 0.398668 0.142209
v 0.519457 0.385782 0.118563
v 0.531738 0.353848 0.138145
v 0.518999 0.386453 0.117822
v 0.502953 0.384443 0.157895
v 0.515621 0.353764 0.171610
v 0.253004 0.353848 0.487666
v 0.282044 0.353764 0.464507
v 0.265854 0.384443 0.455208
v 0.230356 0.386453 0.479768
v 0.248401 0.398668 0.449232
v 0.212174 0.410711 0.440583
v 0.196348 0.398668 0.474299
v 0.231180 0.385782 0.480050
v 0.223527 0.353848 0.501861
v 0.231473 0.386453 0.479231
v 0.190138 0.384443 0.491670
v 0.187314 0.353764 0.510126
v -0.223527 0.353848 0.501861
v -0.187314 0.353764 0.510126
v -0.190138 0.384443 0.491670
v -0.231473 0.386453 0.479230
v -0.196348 0.398668 0.474299
v -0.212174 0.410711 0.440583
v -0.248401 0.398668 0.449232
v -0.231180 0.385782 0.480050
v -0.253004 0.353848 0.487666
v -0.230356 0.386453 0.479768
v -0.265854 0.384443 0.455208
v -0.282044 0.353764 0.464507
v -0.531738 0.353848 0.138145
v -0.515621 0.353764 0.171610
v -0.502953 0.384443 0.157895
v -0.518999 0.386453 0.117822
v -0.493243 0.398668 0.142210
v -0.476750 0.410711 0.108815
v -0.506099 0.398668 0.085884
v -0.519457 0.385782 0.118563
v -0.539018 0.353848 0.106248
v -0.518723 0.386453 0.119031
v -0.521653 0.384443 0.075964
v -0.539017 0.353764 0.069104
v -0.439539 0.353848 -0.329598
v -0.455655 0.353764 -0.296132
v -0.437033 0.384443 -0.294778
v -0.415708 0.386453 -0.332308
v -0.418716 0.398668 -0.296967
v -0.382324 0.410711 -0.304893
v -0.382694 0.398668 -0.342136
v -0.416572 0.385782 -0.332205
v -0.419141 0.353848 -0.355177
v -0.416481 0.386453 -0.331339
v -0.384637 0.384443 -0.360482
v -0.390100 0.353764 -0.378335
v -0.016358 -0.851069 -1.286695
v -0.035754 -0.887981 -1.285582
v -0.052571 -0.850986 -1.278392
v 0.016358 -0.851069 -1.286695
v 0.052571 -0.850986 -1.278392
v 0.035754 -0.887981 -1.285582
v 0.732320 -0.851069 -0.604929
v 0.719356 -0.887981 -0.619399
v 0.703250 -0.850986 -0.628064
v 0.752719 -0.851069 -0.579350
v 0.768805 -0.850986 -0.545861
v 0.763941 -0.887981 -0.563491
v 0.929547 -0.851069 0.195384
v 0.932777 -0.887981 0.176227
v 0.929509 -0.850986 0.158232
v 0.922266 -0.851069 0.227280
v 0.906113 -0.850986 0.260737
v 0.916865 -0.887981 0.245942
v 0.426805 -0.851069 0.848569
v 0.443797 -0.887981 0.839150
v 0.455829 -0.850986 0.825376
v 0.397329 -0.851069 0.862764
v 0.361100 -0.850986 0.870995
v 0.379370 -0.887981 0.870176
v -0.397329 -0.851069 0.862764
v -0.379371 -0.887981 0.870176
v -0.361100 -0.850986 0.870995
v -0.426806 -0.851069 0.848569
v -0.455829 -0.850986 0.825376
v -0.443797 -0.887981 0.839150
v -0.922266 -0.851069 0.227280
v -0.916865 -0.887981 0.245942
v -0.906113 -0.850986 0.260737
v -0.929547 -0.851069 0.195384
v -0.929509 -0.850986 0.158232
v -0.932777 -0.887981 0.176227
v -0.752719 -0.851069 -0.579350
v -0.763941 -0.887981 -0.563491
v -0.768805 -0.850986 -0.545861
v -0.732320 -0.851069 -0.604929
v -0.703250 -0.850986 -0.628064
v -0.719356 -0.887981 -0.619399
vt 0.709188 0.985784
vt 0.711083 0.537233
vt 0.717488 0.537233
vt 0.719384 0.985784
vt 0.423474 0.985784
vt 0.425369 0.537233
vt 0.431774 0.537233
vt 0.433669 0.985784
vt 0.280616 0.985784
vt 0.282512 0.537233
vt 0.288917 0.537233
vt 0.290812 0.985784
vt 0.146060 0.537233
vt 0.147955 0.985784
vt 0.137759 0.985784
vt 0.139654 0.537233
vt 0.133584 0.515458
vt 0.009273 0.515458
vt 0.011798 0.507559
vt 0.131059 0.507559
vt 0.415782 0.382207
vt 0.250000 0.462043
vt 0.084218 0.382207
vt 0.043273 0.202816
vt 0.157998 0.058955
vt 0.342002 0.058955
vt 0.456727 0.202816
vt 0.566331 0.985784
vt 0.568226 0.537233
vt 0.574631 0.537233
vt 0.576527 0.985784
vt 0.852045 0.985784
vt 0.853940 0.537233
vt 0.860346 0.537233
vt 0.862241 0.985784
vt 0.750000 0.454574
vt 0.909943 0.377550
vt 0.949445 0.204478
vt 0.838761 0.065685
vt 0.661239 0.065685
vt 0.550555 0.204478
vt 0.590057 0.377550
vt 0.705013 0.515458
vt 0.580701 0.515458
vt 0.583227 0.507559
vt 0.702488 0.507559
vt 0.562156 0.515458
vt 0.437844 0.515458
vt 0.440370 0.507559
vt 0.559630 0.507559
vt 0.419299 0.515458
vt 0.294987 0.515458
vt 0.297513 0.507559
vt 0.416773 0.507559
vt 0.276442 0.515458
vt 0.152130 0.515458
vt 0.154655 0.507559
vt 0.273916 0.507559
vt 0.990727 0.515458
vt 0.866416 0.515458
vt 0.868941 0.507559
vt 0.988202 0.507559
vt 0.847870 0.515458
vt 0.723558 0.515458
vt 0.726084 0.507559
vt 0.845345 0.507559
vt 0.989706 0.537254
vt 0.983636 0.985763
vt 0.873507 0.985763
vt 0.867437 0.537254
vt 0.729462 0.993433
vt 0.841967 0.993433
vt 0.843980 0.996989
vt 0.727449 0.996989
vt 0.586604 0.993433
vt 0.699110 0.993433
vt 0.701122 0.996989
vt 0.584592 0.996989
vt 0.443747 0.993433
vt 0.556253 0.993433
vt 0.558265 0.996989
vt 0.441735 0.996989
vt 0.300890 0.993433
vt 0.413396 0.993433
vt 0.415408 0.996989
vt 0.298878 0.996989
vt 0.158033 0.993433
vt 0.270538 0.993433
vt 0.272551 0.996989
vt 0.156020 0.996989
vt 0.135321 0.528005
vt 0.007536 0.528005
vt 0.005714 0.505353
vt 0.010543 0.500000
vt 0.992464 0.528005
vt 0.864679 0.528005
vt 0.846600 0.500000
vt 0.851429 0.505353
vt 0.849607 0.528005
vt 0.721822 0.528005
vt 0.703742 0.500000
vt 0.708572 0.505353
vt 0.706750 0.528005
vt 0.578965 0.528005
vt 0.560885 0.500000
vt 0.565715 0.505353
vt 0.563892 0.528005
vt 0.436108 0.528005
vt 0.418028 0.500000
vt 0.422858 0.505353
vt 0.421035 0.528005
vt 0.293250 0.528005
vt 0.275171 0.500000
vt 0.280001 0.505353
vt 0.278178 0.528005
vt 0.150393 0.528005
vt 0.132314 0.500000
vt 0.137143 0.505353
vt 0.994547 0.994230
vt 0.994353 0.994214
vt 0.994451 0.994062
vt 0.846849 0.537253
vt 0.840778 0.985763
vt 0.730650 0.985763
vt 0.724580 0.537253
vt 0.703992 0.537254
vt 0.697921 0.985763
vt 0.587793 0.985763
vt 0.581722 0.537254
vt 0.561135 0.537253
vt 0.555064 0.985763
vt 0.444936 0.985763
vt 0.438865 0.537253
vt 0.418278 0.537254
vt 0.412207 0.985763
vt 0.302079 0.985763
vt 0.296008 0.537254
vt 0.275421 0.537253
vt 0.269350 0.985763
vt 0.159222 0.985763
vt 0.153151 0.537254
vt 0.132563 0.537254
vt 0.126493 0.985763
vt 0.016365 0.985763
vt 0.010294 0.537253
vt 0.003159 0.513252
vt 0.864571 0.530029
vt 0.857143 0.530692
vt 0.857143 0.523017
vt 0.866014 0.523017
vt 0.853984 0.513252
vt 0.756257 0.461971
vt 0.911825 0.387053
vt 0.721714 0.530029
vt 0.714286 0.530692
vt 0.714286 0.523017
vt 0.723157 0.523017
vt 0.711127 0.513252
vt 0.919626 0.377270
vt 0.958049 0.208932
vt 0.578857 0.530029
vt 0.571429 0.530692
vt 0.571429 0.523017
vt 0.580300 0.523017
vt 0.568270 0.513252
vt 0.955264 0.196732
vt 0.847608 0.061735
vt 0.436000 0.530029
vt 0.428571 0.530692
vt 0.428571 0.523017
vt 0.437443 0.523017
vt 0.425413 0.513252
vt 0.836334 0.056306
vt 0.663666 0.056306
vt 0.293143 0.530029
vt 0.285714 0.530692
vt 0.285714 0.523017
vt 0.294586 0.523017
vt 0.282556 0.513252
vt 0.652392 0.061735
vt 0.544736 0.196732
vt 0.150286 0.530029
vt 0.142857 0.530692
vt 0.142857 0.523017
vt 0.151729 0.523017
vt 0.139699 0.513252
vt 0.541951 0.208932
vt 0.580374 0.377270
vt 0.007771 0.520992
vt 0.000846 0.520401
vt 0.588175 0.387053
vt 0.743744 0.461971
vt 0.015176 0.993433
vt 0.127681 0.993433
vt 0.129694 0.996989
vt 0.013163 0.996989
vt 0.862596 0.994230
vt 0.862692 0.994062
vt 0.862790 0.994214
vt 0.148311 0.994230
vt 0.148406 0.994062
vt 0.148504 0.994214
vt 0.719739 0.994230
vt 0.719835 0.994062
vt 0.719933 0.994214
vt 0.576882 0.994230
vt 0.576977 0.994062
vt 0.577076 0.994214
vt 0.434025 0.994230
vt 0.434120 0.994062
vt 0.434218 0.994214
vt 0.291168 0.994230
vt 0.291263 0.994062
vt 0.291361 0.994214
vt 0.005073 0.537476
vt 0.008051 0.986027
vt 0.002953 0.986446
vt 0.001870 0.537895
vt 0.984824 0.993433
vt 0.983852 0.990422
vt 0.988955 0.990422
vt 0.992079 0.995916
vt 0.011007 0.986204
vt 0.011045 0.990422
vt 0.005426 0.990883
vt 0.986837 0.996989
vt 0.991984 0.995748
vt 0.994402 1.000000
vt 0.991680 1.000000
vt 0.868150 0.986204
vt 0.868188 0.990422
vt 0.856949 0.990422
vt 0.870306 0.996989
vt 0.865463 1.000000
vt 0.862740 1.000000
vt 0.865159 0.995748
vt 0.857336 0.990422
vt 0.846098 0.990422
vt 0.846136 0.986204
vt 0.725293 0.986204
vt 0.725331 0.990422
vt 0.714092 0.990422
vt 0.722606 1.000000
vt 0.719883 1.000000
vt 0.722302 0.995748
vt 0.714479 0.990422
vt 0.703240 0.990422
vt 0.703279 0.986204
vt 0.582436 0.986204
vt 0.582474 0.990422
vt 0.571235 0.990422
vt 0.579749 1.000000
vt 0.577026 1.000000
vt 0.579445 0.995748
vt 0.571622 0.990422
vt 0.560383 0.990422
vt 0.560421 0.986204
vt 0.439579 0.986204
vt 0.439617 0.990422
vt 0.428378 0.990422
vt 0.436892 1.000000
vt 0.434169 1.000000
vt 0.436588 0.995748
vt 0.428765 0.990422
vt 0.417526 0.990422
vt 0.417564 0.986204
vt 0.296721 0.986204
vt 0.296760 0.990422
vt 0.285521 0.990422
vt 0.294035 1.000000
vt 0.291312 1.000000
vt 0.293730 0.995748
vt 0.285908 0.990422
vt 0.274669 0.990422
vt 0.274707 0.986204
vt 0.153864 0.986204
vt 0.153903 0.990422
vt 0.142664 0.990422
vt 0.151178 1.000000
vt 0.148455 1.000000
vt 0.150873 0.995748
vt 0.143051 0.990422
vt 0.131812 0.990422
vt 0.131850 0.986204
vt 0.006901 0.532595
vt 0.006947 0.537694
vt 0.000000 0.538599
vt 0.000000 0.533500
vt 0.864044 0.532595
vt 0.864090 0.537694
vt 0.850196 0.537694
vt 0.850242 0.532595
vt 0.721187 0.532595
vt 0.721233 0.537694
vt 0.707339 0.537694
vt 0.707385 0.532595
vt 0.578329 0.532595
vt 0.578376 0.537694
vt 0.564482 0.537694
vt 0.564528 0.532595
vt 0.435472 0.532595
vt 0.435518 0.537694
vt 0.421625 0.537694
vt 0.421671 0.532595
vt 0.292615 0.532595
vt 0.292661 0.537694
vt 0.278767 0.537694
vt 0.278814 0.532595
vt 0.149758 0.532595
vt 0.149804 0.537694
vt 0.135910 0.537694
vt 0.135956 0.532595
vt 0.005619 0.990867
vt 0.008016 0.995748
vt 0.007921 0.995916
vt 0.872319 0.993433
vt 0.849222 0.995916
vt 0.849127 0.995748
vt 0.706365 0.995916
vt 0.706270 0.995748
vt 0.563508 0.995916
vt 0.563413 0.995748
vt 0.420651 0.995916
vt 0.420555 0.995748
vt 0.277794 0.995916
vt 0.277698 0.995748
vt 0.134937 0.995916
vt 0.134841 0.995748
vt 0.413176 0.392611
vt 0.259759 0.466492
vt 0.463236 0.211340
vt 0.425345 0.377351
vt 0.352725 0.059181
vt 0.458893 0.192312
vt 0.164860 0.050713
vt 0.335140 0.050713
vt 0.041107 0.192312
vt 0.147275 0.059181
vt 0.074655 0.377351
vt 0.036764 0.211340
vt 0.240241 0.466492
vt 0.086824 0.392611
vt 0.993057 0.537233
vt 0.988997 0.985784
vn 0.9251 0.3155 0.2112
vn -0.4117 0.3155 0.8550
vn -0.9251 0.3155 0.2112
vn -0.7419 0.3155 -0.5917
vn -0.5571 -0.6120 -0.5613
vn 0.0000 1.0000 -0.0000
vn 0.4117 0.3155 0.8550
vn 0.7419 0.3155 -0.5917
vn 0.0000 -1.0000 0.0000
vn 0.6049 -0.6336 0.4824
vn 0.0000 -0.6336 0.7737
vn -0.6049 -0.6336 0.4824
vn -0.7543 -0.6336 -0.1722
vn 0.5571 -0.6120 -0.5613
vn 0.7543 -0.6336 -0.1722
vn 0.5900 0.3706 -0.7173
vn 0.6177 0.7737 -0.1410
vn 0.4953 0.7737 0.3950
vn -0.0000 0.7737 0.6336
vn -0.4953 0.7737 0.3950
vn -0.6177 0.7737 -0.1410
vn -0.6810 -0.2294 -0.6954
vn 0.0000 -0.8691 -0.4946
vn 0.6810 -0.2294 -0.6954
vn 0.3867 -0.8691 -0.3084
vn 0.9461 -0.2414 -0.2159
vn 0.4822 -0.8691 0.1101
vn 0.7587 -0.2414 0.6050
vn 0.2146 -0.8691 0.4456
vn -0.0000 -0.2414 0.9704
vn -0.2146 -0.8691 0.4456
vn -0.7587 -0.2414 0.6050
vn -0.4822 -0.8691 0.1101
vn -0.9461 -0.2414 -0.2159
vn -0.3867 -0.8691 -0.3084
vn 0.0000 0.6734 -0.7393
vn 0.9339 0.2869 -0.2132
vn 0.7490 0.2869 0.5973
vn 0.0000 0.2869 0.9579
vn -0.7490 0.2869 0.5973
vn -0.9339 0.2869 -0.2132
vn -0.5900 0.3706 -0.7173
vn 0.0000 -0.6726 -0.7400
vn 0.7516 -0.2752 -0.5994
vn 0.5786 -0.6726 -0.4614
vn 0.3160 -0.8940 -0.3178
vn 0.9373 -0.2752 0.2139
vn 0.7215 -0.6726 0.1647
vn 0.4173 -0.9038 -0.0952
vn 0.4171 -0.2752 0.8662
vn 0.3211 -0.6726 0.6667
vn 0.3347 -0.9038 0.2669
vn -0.4171 -0.2752 0.8662
vn -0.3211 -0.6726 0.6667
vn 0.0000 -0.9038 0.4280
vn -0.9373 -0.2752 0.2139
vn -0.7215 -0.6726 0.1647
vn -0.3347 -0.9038 0.2669
vn -0.7516 -0.2752 -0.5994
vn -0.5786 -0.6726 -0.4614
vn -0.4173 -0.9038 -0.0952
vn 0.0000 -0.2752 -0.9614
vn -0.3160 -0.8940 -0.3178
vn -0.2749 0.7737 -0.5708
vn 0.5780 0.6734 -0.4609
vn -0.5780 0.6734 -0.4609
vn 0.7208 0.6734 0.1645
vn 0.3209 0.6733 0.6661
vn -0.3207 0.6734 0.6661
vn -0.7208 0.6733 0.1645
vn 0.0000 0.5221 -0.8529
vn 0.1740 0.5071 -0.8441
vn -0.1740 0.5071 -0.8441
vn 0.0000 0.8691 -0.4946
vn 0.5515 0.5071 -0.6623
vn 0.3867 0.8691 -0.3084
vn 0.7684 0.5071 -0.3903
vn 0.8617 0.5071 0.0182
vn 0.4822 0.8691 0.1101
vn 0.7843 0.5071 0.3574
vn 0.5230 0.5071 0.6851
vn 0.2146 0.8691 0.4456
vn 0.2095 0.5071 0.8360
vn -0.2095 0.5071 0.8360
vn -0.2146 0.8691 0.4456
vn -0.5230 0.5071 0.6851
vn -0.7843 0.5071 0.3574
vn -0.4822 0.8691 0.1101
vn -0.8617 0.5071 0.0182
vn -0.7684 0.5071 -0.3903
vn -0.3867 0.8691 -0.3084
vn -0.5515 0.5071 -0.6623
vn -0.2224 0.0876 -0.9710
vn 0.2224 0.0876 -0.9710
vn 0.6205 0.0876 -0.7793
vn 0.8979 0.0876 -0.4315
vn 0.9962 0.0876 -0.0008
vn 0.8972 0.0876 0.4329
vn 0.6217 0.0876 0.7783
vn 0.2209 0.0876 0.9714
vn -0.2209 0.0876 0.9714
vn -0.6217 0.0876 0.7783
vn -0.8972 0.0876 0.4329
vn -0.9962 0.0876 -0.0008
vn -0.8979 0.0876 -0.4315
vn -0.6205 0.0876 -0.7793
vn 0.1394 0.7341 -0.6646
vn 0.0000 0.4611 -0.8874
vn -0.1394 0.7341 -0.6646
vn 0.6938 0.4611 -0.5533
vn 0.4327 0.7341 -0.5234
vn 0.6065 0.7341 -0.3053
vn 0.8651 0.4611 0.1975
vn 0.6790 0.7341 0.0119
vn 0.6169 0.7341 0.2838
vn 0.3850 0.4611 0.7995
vn 0.4140 0.7341 0.5383
vn 0.1627 0.7341 0.6593
vn -0.3850 0.4611 0.7995
vn -0.1627 0.7341 0.6593
vn -0.4140 0.7341 0.5383
vn -0.8651 0.4611 0.1975
vn -0.6169 0.7341 0.2838
vn -0.6790 0.7341 0.0119
vn -0.6938 0.4611 -0.5533
vn -0.6065 0.7341 -0.3053
vn -0.4327 0.7341 -0.5234
vn 0.0000 -0.0302 -0.9995
vn 0.7815 -0.0302 -0.6232
vn 0.9745 -0.0302 0.2224
vn 0.4337 -0.0302 0.9006
vn -0.4337 -0.0302 0.9006
vn -0.9745 -0.0302 0.2224
vn -0.7815 -0.0302 -0.6232
vn 0.3718 0.5155 -0.7720
vn 0.1460 0.9417 -0.3031
vn 0.8354 0.5155 -0.1907
vn 0.3280 0.9417 -0.0749
vn 0.6700 0.5155 0.5343
vn 0.2630 0.9417 0.2097
vn 0.0000 0.5155 0.8569
vn -0.0000 0.9417 0.3364
vn -0.6699 0.5155 0.5343
vn -0.2630 0.9417 0.2097
vn -0.8354 0.5155 -0.1907
vn -0.3280 0.9417 -0.0749
vn -0.3718 0.5155 -0.7720
vn -0.1460 0.9417 -0.3031
vn 0.7022 -0.0209 -0.7117
vn 0.9747 -0.0221 -0.2225
vn 0.7816 -0.0221 0.6233
vn -0.0000 -0.0221 0.9998
vn -0.7816 -0.0221 0.6233
vn -0.9747 -0.0221 -0.2225
vn -0.7022 -0.0209 -0.7117
vn -0.1915 0.5124 -0.8371
vn 0.1915 0.5124 -0.8371
vn 0.8573 0.3083 -0.4123
vn 0.5927 0.3083 -0.7441
vn -0.8573 0.3083 -0.4123
vn -0.5927 0.3083 -0.7441
vn 0.8569 0.3083 0.4132
vn 0.9513 0.3083 -0.0005
vn 0.2112 0.3083 0.9275
vn 0.5935 0.3083 0.7434
vn -0.5935 0.3083 0.7434
vn -0.2112 0.3083 0.9275
vn -0.9513 0.3083 -0.0005
vn -0.8569 0.3083 0.4132
vn 0.2749 0.7737 -0.5708
usemtl None
s off
f 68/1/1 135/2/1 132/3/1 60/4/1
f 92/5/2 147/6/2 144/7/2 84/8/2
f 104/9/3 153/10/3 150/11/3 96/12/3
f 156/13/4 108/14/4 116/15/4 159/16/4
f 34/17/5 4/18/5 1/19/5 31/20/5
f 53/21/6 47/22/6 113/23/6 101/24/6 89/25/6 77/26/6 65/27/6
f 80/28/7 141/29/7 138/30/7 72/31/7
f 56/32/8 129/33/8 126/34/8 48/35/8
f 3/36/9 7/37/9 12/38/9 17/39/9 22/40/9 27/41/9 32/42/9
f 14/43/10 20/44/10 18/45/10 11/46/10
f 19/47/11 25/48/11 23/49/11 16/50/11
f 24/51/12 30/52/12 28/53/12 21/54/12
f 29/55/13 35/56/13 33/57/13 26/58/13
f 5/59/14 10/60/14 8/61/14 2/62/14
f 9/63/15 15/64/15 13/65/15 6/66/15
f 124/67/16 37/68/16 49/69/16 128/70/16
f 62/71/17 58/72/17 54/73/17 64/74/17
f 74/75/18 70/76/18 66/77/18 76/78/18
f 86/79/19 82/80/19 78/81/19 88/82/19
f 98/83/20 94/84/20 90/85/20 100/86/20
f 110/87/21 106/88/21 102/89/21 112/90/21
f 161/91/22 121/92/22 4/18/22 34/17/22
f 1/19/23 2/93/23 3/94/23
f 125/95/24 127/96/24 10/60/24 5/59/24
f 6/66/25 7/97/25 8/98/25
f 131/99/26 133/100/26 15/64/26 9/63/26
f 11/46/27 12/101/27 13/102/27
f 137/103/28 139/104/28 20/44/28 14/43/28
f 16/50/29 17/105/29 18/106/29
f 143/107/30 145/108/30 25/48/30 19/47/30
f 21/54/31 22/109/31 23/110/31
f 149/111/32 151/112/32 30/52/32 24/51/32
f 26/58/33 27/113/33 28/114/33
f 155/115/34 157/116/34 35/56/34 29/55/34
f 31/20/35 32/117/35 33/118/35
f 39/119/36 43/120/36 45/121/36
f 130/122/37 59/123/37 61/124/37 134/125/37
f 136/126/38 71/127/38 73/128/38 140/129/38
f 142/130/39 83/131/39 85/132/39 146/133/39
f 148/134/40 95/135/40 97/136/40 152/137/40
f 154/138/41 107/139/41 109/140/41 158/141/41
f 160/142/42 119/143/42 41/144/42 122/145/42
f 1/19/43 4/18/43 5/146/43 2/93/43
f 127/147/44 131/148/44 9/149/44 10/150/44
f 9/63/45 6/66/45 8/98/45 10/151/45
f 7/37/46 3/36/46 2/152/46 8/153/46
f 133/154/47 137/155/47 14/156/47 15/157/47
f 14/43/48 11/46/48 13/102/48 15/158/48
f 12/38/49 7/37/49 6/159/49 13/160/49
f 139/161/50 143/162/50 19/163/50 20/164/50
f 19/47/51 16/50/51 18/106/51 20/165/51
f 17/39/52 12/38/52 11/166/52 18/167/52
f 145/168/53 149/169/53 24/170/53 25/171/53
f 24/51/54 21/54/54 23/110/54 25/172/54
f 22/40/55 17/39/55 16/173/55 23/174/55
f 151/175/56 155/176/56 29/177/56 30/178/56
f 29/55/57 26/58/57 28/114/57 30/179/57
f 27/41/58 22/40/58 21/180/58 28/181/58
f 157/182/59 161/183/59 34/184/59 35/185/59
f 34/17/60 31/20/60 33/118/60 35/186/60
f 32/42/61 27/41/61 26/187/61 33/188/61
f 4/18/62 121/189/62 125/190/62 5/146/62
f 3/36/63 32/42/63 31/191/63 1/192/63
f 42/193/64 118/194/64 114/195/64 46/196/64
f 51/197/65 55/198/65 57/199/65
f 111/200/66 115/201/66 117/202/66
f 63/203/67 67/204/67 69/205/67
f 75/206/68 79/207/68 81/208/68
f 87/209/69 91/210/69 93/211/69
f 99/212/70 103/213/70 105/214/70
f 120/215/71 40/216/71 38/217/71 123/218/71
f 36/219/72 37/220/72 38/221/72 39/222/72
f 40/216/73 41/223/73 42/224/73 43/225/73
f 44/226/74 45/227/74 46/228/74 47/229/74
f 48/35/75 49/230/75 50/231/75 51/232/75
f 52/233/76 53/234/76 54/235/76 55/236/76
f 56/32/77 57/237/77 58/238/77 59/239/77
f 60/4/78 61/240/78 62/241/78 63/242/78
f 64/74/79 65/243/79 66/244/79 67/245/79
f 68/1/80 69/246/80 70/247/80 71/248/80
f 72/31/81 73/249/81 74/250/81 75/251/81
f 76/78/82 77/252/82 78/253/82 79/254/82
f 80/28/83 81/255/83 82/256/83 83/257/83
f 84/8/84 85/258/84 86/259/84 87/260/84
f 88/82/85 89/261/85 90/262/85 91/263/85
f 92/5/86 93/264/86 94/265/86 95/266/86
f 96/12/87 97/267/87 98/268/87 99/269/87
f 100/86/88 101/270/88 102/271/88 103/272/88
f 104/9/89 105/273/89 106/274/89 107/275/89
f 108/14/90 109/276/90 110/277/90 111/278/90
f 112/90/91 113/279/91 114/280/91 115/281/91
f 116/15/92 117/282/92 118/283/92 119/284/92
f 120/215/93 121/285/93 122/286/93
f 123/218/94 124/287/94 125/288/94
f 126/34/95 127/289/95 128/290/95
f 129/33/96 130/291/96 131/292/96
f 132/3/97 133/293/97 134/294/97
f 135/2/98 136/295/98 137/296/98
f 138/30/99 139/297/99 140/298/99
f 141/29/100 142/299/100 143/300/100
f 144/7/101 145/301/101 146/302/101
f 147/6/102 148/303/102 149/304/102
f 150/11/103 151/305/103 152/306/103
f 153/10/104 154/307/104 155/308/104
f 156/13/105 157/309/105 158/310/105
f 159/16/106 160/311/106 161/312/106
f 44/226/107 36/219/107 39/119/107 45/121/107
f 38/217/108 40/216/108 43/225/108 39/313/108
f 42/193/109 46/196/109 45/314/109 43/315/109
f 56/32/110 48/35/110 51/232/110 57/237/110
f 50/316/111 52/233/111 55/198/111 51/197/111
f 54/73/112 58/72/112 57/317/112 55/318/112
f 68/1/113 60/4/113 63/242/113 69/246/113
f 62/71/114 64/74/114 67/204/114 63/203/114
f 66/77/115 70/76/115 69/319/115 67/320/115
f 80/28/116 72/31/116 75/251/116 81/255/116
f 74/75/117 76/78/117 79/207/117 75/206/117
f 78/81/118 82/80/118 81/321/118 79/322/118
f 92/5/119 84/8/119 87/260/119 93/264/119
f 86/79/120 88/82/120 91/210/120 87/209/120
f 90/85/121 94/84/121 93/323/121 91/324/121
f 104/9/122 96/12/122 99/269/122 105/273/122
f 98/83/123 100/86/123 103/213/123 99/212/123
f 102/89/124 106/88/124 105/325/124 103/326/124
f 116/15/125 108/14/125 111/278/125 117/282/125
f 110/87/126 112/90/126 115/201/126 111/200/126
f 114/195/127 118/194/127 117/327/127 115/328/127
f 120/215/128 123/218/128 125/288/128 121/285/128
f 126/34/129 129/33/129 131/292/129 127/289/129
f 132/3/130 135/2/130 137/296/130 133/293/130
f 138/30/131 141/29/131 143/300/131 139/297/131
f 144/7/132 147/6/132 149/304/132 145/301/132
f 150/11/133 153/10/133 155/308/133 151/305/133
f 156/13/134 159/16/134 161/312/134 157/309/134
f 49/69/135 37/68/135 36/219/135 50/316/135
f 47/22/136 53/21/136 52/329/136 44/330/136
f 61/124/137 59/123/137 58/72/137 62/71/137
f 53/21/138 65/27/138 64/331/138 54/332/138
f 73/128/139 71/127/139 70/76/139 74/75/139
f 65/27/140 77/26/140 76/333/140 66/334/140
f 85/132/141 83/131/141 82/80/141 86/79/141
f 77/26/142 89/25/142 88/335/142 78/336/142
f 97/136/143 95/135/143 94/84/143 98/83/143
f 89/25/144 101/24/144 100/337/144 90/338/144
f 109/140/145 107/139/145 106/88/145 110/87/145
f 101/24/146 113/23/146 112/339/146 102/340/146
f 41/144/147 119/143/147 118/194/147 42/193/147
f 113/23/148 47/22/148 46/341/148 114/342/148
f 124/67/149 128/70/149 127/96/149 125/95/149
f 130/122/150 134/125/150 133/100/150 131/99/150
f 136/126/151 140/129/151 139/104/151 137/103/151
f 142/130/152 146/133/152 145/108/152 143/107/152
f 148/134/153 152/137/153 151/112/153 149/111/153
f 154/138/154 158/141/154 157/116/154 155/115/154
f 160/142/155 122/145/155 121/92/155 161/91/155
f 122/145/156 41/144/156 40/216/156 120/215/156
f 37/68/157 124/67/157 123/343/157 38/344/157
f 59/123/158 130/122/158 129/33/158 56/32/158
f 128/70/159 49/69/159 48/35/159 126/34/159
f 158/141/160 109/140/160 108/14/160 156/13/160
f 119/143/161 160/142/161 159/16/161 116/15/161
f 71/127/162 136/126/162 135/2/162 68/1/162
f 134/125/163 61/124/163 60/4/163 132/3/163
f 83/131/164 142/130/164 141/29/164 80/28/164
f 140/129/165 73/128/165 72/31/165 138/30/165
f 95/135/166 148/134/166 147/6/166 92/5/166
f 146/133/167 85/132/167 84/8/167 144/7/167
f 107/139/168 154/138/168 153/10/168 104/9/168
f 152/137/169 97/136/169 96/12/169 150/11/169
f 50/316/170 36/219/170 44/226/170 52/233/170
